<?xml version="1.0" standalone="no"?>
<!DOCTYPE svg PUBLIC "-//W3C//DTD SVG 20010904//EN"
 "http://www.w3.org/TR/2001/REC-SVG-20010904/DTD/svg10.dtd">
<svg version="1.0" xmlns="http://www.w3.org/2000/svg"
 width="799.000000pt" height="799.000000pt" viewBox="0 0 799.000000 799.000000"
 preserveAspectRatio="xMidYMid meet">

<g transform="translate(0.000000,799.000000) scale(0.100000,-0.100000)"
fill="#000000" stroke="none">
<path d="M3745 7984 c-455 -37 -824 -120 -1225 -277 -971 -379 -1791 -1179
-2200 -2147 -153 -361 -245 -713 -296 -1130 -23 -181 -26 -645 -6 -825 74
-672 281 -1257 636 -1800 244 -372 578 -730 932 -997 575 -434 1224 -694 1964
-785 110 -13 218 -17 445 -17 321 0 457 11 725 60 1624 298 2906 1580 3204
3204 49 268 60 404 60 725 0 322 -11 458 -60 725 -129 700 -442 1350 -910
1890 -123 143 -373 383 -515 497 -610 486 -1277 763 -2064 859 -124 15 -579
27 -690 18z m1706 -1185 c20 -8 52 -27 72 -42 20 -15 40 -27 46 -27 6 0 11 -4
11 -9 0 -5 14 -23 30 -39 17 -17 30 -37 30 -45 0 -8 9 -22 19 -31 10 -10 22
-34 26 -54 4 -20 14 -45 22 -54 8 -9 18 -39 20 -65 3 -26 9 -52 13 -58 18 -24
21 -142 5 -212 -17 -76 -17 -134 1 -140 5 -2 16 20 24 49 7 29 21 66 31 83 16
24 19 51 19 142 0 105 -2 116 -30 171 -16 33 -30 64 -30 69 0 6 -9 18 -20 28
-12 11 -20 31 -20 52 0 27 4 33 22 33 23 0 88 -56 88 -75 0 -6 11 -26 25 -45
14 -19 25 -43 25 -55 0 -11 8 -32 18 -45 14 -20 17 -46 17 -131 0 -69 -5 -112
-13 -121 -6 -8 -16 -39 -22 -67 -5 -29 -19 -64 -30 -78 -11 -14 -20 -31 -20
-37 0 -6 -25 -37 -55 -69 -30 -32 -55 -62 -55 -67 0 -4 -9 -10 -20 -13 -11 -3
-20 -14 -20 -25 0 -17 10 -20 72 -26 40 -4 77 -11 82 -16 6 -6 23 -10 38 -10
16 0 45 -7 65 -15 19 -8 45 -15 57 -15 12 0 26 -4 32 -8 5 -4 36 -16 69 -26
33 -10 74 -25 92 -32 17 -8 36 -14 42 -14 6 0 29 -11 51 -25 22 -14 44 -25 50
-25 14 0 111 -54 167 -91 23 -16 46 -29 52 -29 6 0 11 -4 11 -10 0 -5 7 -10
15 -10 19 0 235 -218 235 -236 0 -7 9 -18 20 -24 11 -6 23 -22 26 -36 3 -13
14 -30 24 -37 9 -6 21 -28 25 -47 14 -63 40 -87 102 -93 79 -8 103 -33 103
-107 0 -47 -5 -65 -30 -101 -16 -24 -30 -49 -30 -54 0 -6 -9 -16 -20 -23 -11
-7 -20 -18 -20 -25 -1 -18 -60 -57 -190 -124 -63 -33 -131 -70 -150 -81 -19
-12 -55 -31 -80 -42 -185 -87 -224 -104 -275 -119 -22 -7 -49 -16 -60 -21 -39
-17 -217 -70 -234 -70 -9 0 -21 -4 -26 -8 -10 -9 -63 -23 -220 -58 -44 -10
-81 -19 -83 -20 -2 -1 5 -15 15 -30 16 -26 18 -49 15 -244 -1 -118 1 -221 6
-228 12 -18 116 -31 177 -22 28 4 86 17 130 30 211 59 313 80 381 80 90 0 104
-5 104 -39 0 -20 -7 -31 -26 -40 -15 -7 -24 -18 -22 -28 3 -17 11 -19 173 -52
64 -13 128 -31 155 -43 93 -44 75 -97 -32 -98 -32 0 -58 -4 -58 -10 0 -5 7
-10 16 -10 9 0 28 -12 42 -27 l25 -27 -23 -18 c-28 -23 -129 -24 -190 -3 -49
17 -100 20 -100 5 0 -5 8 -10 18 -10 10 0 40 -14 66 -30 40 -26 47 -35 44 -58
-3 -25 -6 -27 -60 -30 -35 -2 -68 2 -85 11 -15 8 -43 18 -60 22 -26 5 -33 3
-33 -9 0 -8 9 -20 20 -26 29 -16 25 -48 -7 -61 -61 -24 -92 -13 -308 111 -45
26 -86 28 -190 12 -70 -11 -79 -17 -116 -72 -12 -18 -26 -24 -72 -28 -46 -4
-61 -9 -77 -30 -11 -13 -20 -31 -20 -38 0 -8 -4 -14 -10 -14 -6 0 -10 -29 -10
-66 0 -56 4 -71 30 -109 17 -24 30 -47 30 -52 0 -4 18 -33 40 -63 22 -30 44
-65 50 -77 5 -13 14 -23 19 -23 5 0 22 -20 38 -45 15 -25 31 -45 36 -45 15 0
7 -58 -10 -64 -31 -12 -219 -27 -454 -34 -129 -5 -241 -12 -248 -16 -10 -6 -6
-14 14 -30 l27 -22 -36 -38 c-20 -22 -36 -43 -36 -47 0 -5 -6 -9 -14 -9 -16 0
-26 -30 -26 -80 0 -48 8 -57 66 -75 41 -13 65 -13 144 -4 52 6 122 17 155 24
198 45 253 45 291 -2 27 -33 28 -40 10 -75 -8 -15 -17 -40 -21 -57 -4 -18 -20
-40 -38 -53 -31 -22 -40 -23 -302 -26 -148 -2 -290 -1 -314 3 -35 5 -55 18
-105 66 -57 56 -62 59 -88 48 -16 -6 -28 -15 -28 -19 0 -5 -19 -22 -42 -39
-55 -41 -132 -44 -174 -7 l-28 23 30 27 c16 14 38 35 50 46 12 11 24 20 28 20
4 0 13 6 21 13 7 6 28 23 46 37 49 36 134 122 147 147 20 36 14 51 -35 89
l-48 36 -310 -7 c-416 -9 -835 -7 -975 6 -63 6 -156 13 -205 16 -86 5 -91 4
-118 -21 -15 -14 -32 -26 -38 -26 -5 0 -9 -4 -9 -8 0 -4 -20 -30 -45 -57 -57
-62 -117 -168 -113 -198 3 -21 7 -22 127 -25 84 -2 150 2 199 13 135 28 223
16 280 -38 30 -29 32 -35 32 -99 l0 -67 -37 -10 c-71 -18 -159 -22 -239 -12
-43 6 -160 13 -258 16 l-180 6 -38 31 c-21 16 -41 41 -44 54 -3 13 -10 24 -16
24 -21 0 -48 -22 -48 -40 0 -41 -28 -53 -114 -48 -84 4 -136 25 -136 55 0 15
320 336 380 382 l32 24 -23 18 c-13 10 -29 19 -34 19 -6 0 -16 13 -23 29 -14
33 -35 41 -107 41 -54 0 -249 25 -305 39 -31 8 -111 25 -240 51 -25 5 -67 12
-95 16 -73 9 -237 61 -297 94 -10 6 -23 10 -29 10 -6 0 -25 6 -42 14 -18 8
-57 22 -87 31 -30 10 -100 39 -155 65 -55 26 -118 56 -140 65 -112 50 -231
108 -235 116 -3 4 -21 15 -40 24 -19 9 -48 24 -65 34 -16 9 -59 33 -95 51 -36
19 -94 54 -130 79 -36 26 -85 57 -110 70 -51 27 -90 60 -90 75 0 13 41 56 53
56 9 0 122 50 159 71 10 5 23 9 29 9 10 0 47 16 184 80 22 10 65 30 95 43 30
14 75 34 100 45 25 12 68 30 96 41 28 11 71 28 95 39 24 11 60 25 79 33 19 7
62 25 94 41 33 15 65 28 71 28 6 0 35 11 63 25 29 14 56 25 62 25 5 0 24 6 42
14 18 8 49 21 70 30 20 9 41 16 47 16 6 0 19 4 29 9 9 5 60 24 112 41 52 18
104 36 115 41 24 10 131 47 280 95 61 20 119 40 130 44 11 5 28 11 38 14 27 9
20 31 -18 60 -38 29 -43 47 -20 66 13 10 38 10 133 0 227 -25 265 -24 334 3
35 14 79 28 99 31 46 8 70 32 43 43 -21 8 -100 88 -121 123 -17 29 -109 100
-129 100 -8 0 -14 5 -14 10 0 6 -6 10 -13 10 -7 0 -31 17 -53 38 -35 32 -42
45 -47 92 -4 31 -2 93 3 138 7 67 15 91 42 130 18 26 43 56 57 67 33 27 108
54 153 55 20 0 40 5 43 10 3 6 14 10 24 10 9 0 30 14 47 31 41 45 179 146 228
168 110 51 160 71 170 71 7 0 17 5 23 11 12 12 123 53 186 70 21 5 45 13 55
18 18 9 159 47 232 62 25 5 54 13 65 18 11 5 34 12 50 14 79 13 155 31 155 38
0 5 -7 14 -16 21 -8 7 -24 21 -35 31 -10 9 -22 17 -26 17 -5 0 -30 21 -56 45
-27 25 -52 45 -58 45 -5 0 -9 6 -9 14 0 8 -8 21 -18 28 -11 7 -25 24 -32 38
-7 14 -16 27 -19 30 -17 13 -40 61 -46 93 -6 33 -4 38 19 48 28 13 50 2 68
-36 28 -59 51 -90 124 -162 93 -94 192 -171 235 -183 34 -10 86 -3 95 12 3 5
-37 51 -89 101 -52 51 -97 102 -101 113 -4 12 -15 29 -26 39 -11 10 -20 26
-20 36 0 10 -10 28 -22 39 -21 19 -23 30 -23 130 0 125 7 140 54 120 30 -12
31 -14 31 -79 1 -36 7 -84 15 -106 8 -22 15 -46 15 -54 0 -18 63 -112 99 -149
58 -58 153 -137 184 -154 33 -19 69 -22 101 -9 17 7 16 10 -18 36 -20 15 -44
42 -52 59 -8 17 -22 45 -32 61 -14 25 -17 57 -16 196 1 149 3 171 22 207 11
22 24 58 28 79 4 21 15 49 24 63 10 14 23 42 31 63 8 22 22 43 31 48 10 5 18
14 18 20 0 15 53 67 103 100 36 25 52 29 113 29 42 0 75 5 82 12 7 7 36 20 65
30 62 21 192 19 248 -3z"/>
</g>
</svg>
